%FSLAX45Y45*%
G04 Gerber Fmt 4.5, Leading zero omitted, Abs format (unit mm)*
G04 Created by KiCad (PCBNEW 4.0.7) date 09/16/17 19:45:39*
%MOMM*%
%LPD*%
G01*
G04 APERTURE LIST*
%ADD10C,0.127000*%
%ADD11C,0.150000*%
%ADD12C,0.200000*%
%ADD13C,0.300000*%
G04 APERTURE END LIST*
D10*
D11*
X4826000Y0D02*
X0Y0D01*
X4826000Y5461000D02*
X4826000Y0D01*
X0Y5461000D02*
X4826000Y5461000D01*
X0Y0D02*
X0Y5461000D01*
D12*
X3536000Y2052000D02*
X3576000Y2012000D01*
X3576000Y2052000D02*
X3536000Y2012000D01*
X2630800Y1600200D02*
G75*
G03X2630800Y1600200I-40000J0D01*
G01*
X2630800Y1350200D02*
G75*
G03X2630800Y1350200I-40000J0D01*
G01*
X3536500Y711200D02*
G75*
G03X3536500Y711200I-40000J0D01*
G01*
X3786500Y711200D02*
G75*
G03X3786500Y711200I-40000J0D01*
G01*
X254000Y4873500D02*
X254000Y4778500D01*
X206500Y4826000D02*
X301500Y4826000D01*
X254000Y4619500D02*
X254000Y4524500D01*
X206500Y4572000D02*
X301500Y4572000D01*
X254000Y4365500D02*
X254000Y4270500D01*
X206500Y4318000D02*
X301500Y4318000D01*
X254000Y4111500D02*
X254000Y4016500D01*
X206500Y4064000D02*
X301500Y4064000D01*
X254000Y3857500D02*
X254000Y3762500D01*
X206500Y3810000D02*
X301500Y3810000D01*
X4203700Y758700D02*
X4203700Y663700D01*
X4156200Y711200D02*
X4251200Y711200D01*
X797921Y599079D02*
X797921Y670921D01*
X726079Y670921D01*
X726079Y599079D01*
X797921Y599079D01*
X797921Y345079D02*
X797921Y416921D01*
X726079Y416921D01*
X726079Y345079D01*
X797921Y345079D01*
X1051921Y599079D02*
X1051921Y670921D01*
X980079Y670921D01*
X980079Y599079D01*
X1051921Y599079D01*
X1051921Y345079D02*
X1051921Y416921D01*
X980079Y416921D01*
X980079Y345079D01*
X1051921Y345079D01*
X1305921Y599079D02*
X1305921Y670921D01*
X1234079Y670921D01*
X1234079Y599079D01*
X1305921Y599079D01*
X1305921Y345079D02*
X1305921Y416921D01*
X1234079Y416921D01*
X1234079Y345079D01*
X1305921Y345079D01*
X1559921Y599079D02*
X1559921Y670921D01*
X1488079Y670921D01*
X1488079Y599079D01*
X1559921Y599079D01*
X1559921Y345079D02*
X1559921Y416921D01*
X1488079Y416921D01*
X1488079Y345079D01*
X1559921Y345079D01*
X1813921Y599079D02*
X1813921Y670921D01*
X1742079Y670921D01*
X1742079Y599079D01*
X1813921Y599079D01*
X1813921Y345079D02*
X1813921Y416921D01*
X1742079Y416921D01*
X1742079Y345079D01*
X1813921Y345079D01*
X2067921Y599079D02*
X2067921Y670921D01*
X1996079Y670921D01*
X1996079Y599079D01*
X2067921Y599079D01*
X2067921Y345079D02*
X2067921Y416921D01*
X1996079Y416921D01*
X1996079Y345079D01*
X2067921Y345079D01*
X2321921Y599079D02*
X2321921Y670921D01*
X2250079Y670921D01*
X2250079Y599079D01*
X2321921Y599079D01*
X2321921Y345079D02*
X2321921Y416921D01*
X2250079Y416921D01*
X2250079Y345079D01*
X2321921Y345079D01*
X2575921Y599079D02*
X2575921Y670921D01*
X2504079Y670921D01*
X2504079Y599079D01*
X2575921Y599079D01*
X2575921Y345079D02*
X2575921Y416921D01*
X2504079Y416921D01*
X2504079Y345079D01*
X2575921Y345079D01*
X1016000Y5279000D02*
X1071000Y5334000D01*
X1016000Y5389000D01*
X961000Y5334000D01*
X1016000Y5279000D01*
X1016000Y5025000D02*
X1071000Y5080000D01*
X1016000Y5135000D01*
X961000Y5080000D01*
X1016000Y5025000D01*
X1016000Y4771000D02*
X1071000Y4826000D01*
X1016000Y4881000D01*
X961000Y4826000D01*
X1016000Y4771000D01*
X1016000Y4517000D02*
X1071000Y4572000D01*
X1016000Y4627000D01*
X961000Y4572000D01*
X1016000Y4517000D01*
X1016000Y4263000D02*
X1071000Y4318000D01*
X1016000Y4373000D01*
X961000Y4318000D01*
X1016000Y4263000D01*
X1016000Y4009000D02*
X1071000Y4064000D01*
X1016000Y4119000D01*
X961000Y4064000D01*
X1016000Y4009000D01*
X1016000Y3755000D02*
X1071000Y3810000D01*
X1016000Y3865000D01*
X961000Y3810000D01*
X1016000Y3755000D01*
X1016000Y3501000D02*
X1071000Y3556000D01*
X1016000Y3611000D01*
X961000Y3556000D01*
X1016000Y3501000D01*
X1016000Y3247000D02*
X1071000Y3302000D01*
X1016000Y3357000D01*
X961000Y3302000D01*
X1016000Y3247000D01*
X1016000Y2993000D02*
X1071000Y3048000D01*
X1016000Y3103000D01*
X961000Y3048000D01*
X1016000Y2993000D01*
X1016000Y2739000D02*
X1071000Y2794000D01*
X1016000Y2849000D01*
X961000Y2794000D01*
X1016000Y2739000D01*
X1016000Y2485000D02*
X1071000Y2540000D01*
X1016000Y2595000D01*
X961000Y2540000D01*
X1016000Y2485000D01*
X1016000Y2231000D02*
X1071000Y2286000D01*
X1016000Y2341000D01*
X961000Y2286000D01*
X1016000Y2231000D01*
X1016000Y1977000D02*
X1071000Y2032000D01*
X1016000Y2087000D01*
X961000Y2032000D01*
X1016000Y1977000D01*
X2540000Y5279000D02*
X2595000Y5334000D01*
X2540000Y5389000D01*
X2485000Y5334000D01*
X2540000Y5279000D01*
X2540000Y5025000D02*
X2595000Y5080000D01*
X2540000Y5135000D01*
X2485000Y5080000D01*
X2540000Y5025000D01*
X2540000Y4771000D02*
X2595000Y4826000D01*
X2540000Y4881000D01*
X2485000Y4826000D01*
X2540000Y4771000D01*
X2540000Y4517000D02*
X2595000Y4572000D01*
X2540000Y4627000D01*
X2485000Y4572000D01*
X2540000Y4517000D01*
X2540000Y4263000D02*
X2595000Y4318000D01*
X2540000Y4373000D01*
X2485000Y4318000D01*
X2540000Y4263000D01*
X2540000Y4009000D02*
X2595000Y4064000D01*
X2540000Y4119000D01*
X2485000Y4064000D01*
X2540000Y4009000D01*
X2540000Y3755000D02*
X2595000Y3810000D01*
X2540000Y3865000D01*
X2485000Y3810000D01*
X2540000Y3755000D01*
X2540000Y3501000D02*
X2595000Y3556000D01*
X2540000Y3611000D01*
X2485000Y3556000D01*
X2540000Y3501000D01*
X2540000Y3247000D02*
X2595000Y3302000D01*
X2540000Y3357000D01*
X2485000Y3302000D01*
X2540000Y3247000D01*
X2540000Y2993000D02*
X2595000Y3048000D01*
X2540000Y3103000D01*
X2485000Y3048000D01*
X2540000Y2993000D01*
X2540000Y2739000D02*
X2595000Y2794000D01*
X2540000Y2849000D01*
X2485000Y2794000D01*
X2540000Y2739000D01*
X2540000Y2485000D02*
X2595000Y2540000D01*
X2540000Y2595000D01*
X2485000Y2540000D01*
X2540000Y2485000D01*
X2540000Y2231000D02*
X2595000Y2286000D01*
X2540000Y2341000D01*
X2485000Y2286000D01*
X2540000Y2231000D01*
X2540000Y1977000D02*
X2595000Y2032000D01*
X2540000Y2087000D01*
X2485000Y2032000D01*
X2540000Y1977000D01*
X3048000Y4009000D02*
X3103000Y4064000D01*
X3048000Y4119000D01*
X2993000Y4064000D01*
X3048000Y4009000D01*
X3048000Y3755000D02*
X3103000Y3810000D01*
X3048000Y3865000D01*
X2993000Y3810000D01*
X3048000Y3755000D01*
X3048000Y3501000D02*
X3103000Y3556000D01*
X3048000Y3611000D01*
X2993000Y3556000D01*
X3048000Y3501000D01*
X3048000Y3247000D02*
X3103000Y3302000D01*
X3048000Y3357000D01*
X2993000Y3302000D01*
X3048000Y3247000D01*
X3048000Y2993000D02*
X3103000Y3048000D01*
X3048000Y3103000D01*
X2993000Y3048000D01*
X3048000Y2993000D01*
X3048000Y2739000D02*
X3103000Y2794000D01*
X3048000Y2849000D01*
X2993000Y2794000D01*
X3048000Y2739000D01*
X3048000Y2485000D02*
X3103000Y2540000D01*
X3048000Y2595000D01*
X2993000Y2540000D01*
X3048000Y2485000D01*
X3048000Y2231000D02*
X3103000Y2286000D01*
X3048000Y2341000D01*
X2993000Y2286000D01*
X3048000Y2231000D01*
X3048000Y1977000D02*
X3103000Y2032000D01*
X3048000Y2087000D01*
X2993000Y2032000D01*
X3048000Y1977000D01*
X3048000Y1723000D02*
X3103000Y1778000D01*
X3048000Y1833000D01*
X2993000Y1778000D01*
X3048000Y1723000D01*
X3048000Y1469000D02*
X3103000Y1524000D01*
X3048000Y1579000D01*
X2993000Y1524000D01*
X3048000Y1469000D01*
X3048000Y1215000D02*
X3103000Y1270000D01*
X3048000Y1325000D01*
X2993000Y1270000D01*
X3048000Y1215000D01*
X4572000Y4009000D02*
X4627000Y4064000D01*
X4572000Y4119000D01*
X4517000Y4064000D01*
X4572000Y4009000D01*
X4572000Y3755000D02*
X4627000Y3810000D01*
X4572000Y3865000D01*
X4517000Y3810000D01*
X4572000Y3755000D01*
X4572000Y3501000D02*
X4627000Y3556000D01*
X4572000Y3611000D01*
X4517000Y3556000D01*
X4572000Y3501000D01*
X4572000Y3247000D02*
X4627000Y3302000D01*
X4572000Y3357000D01*
X4517000Y3302000D01*
X4572000Y3247000D01*
X4572000Y2993000D02*
X4627000Y3048000D01*
X4572000Y3103000D01*
X4517000Y3048000D01*
X4572000Y2993000D01*
X4572000Y2739000D02*
X4627000Y2794000D01*
X4572000Y2849000D01*
X4517000Y2794000D01*
X4572000Y2739000D01*
X4572000Y2485000D02*
X4627000Y2540000D01*
X4572000Y2595000D01*
X4517000Y2540000D01*
X4572000Y2485000D01*
X4572000Y2231000D02*
X4627000Y2286000D01*
X4572000Y2341000D01*
X4517000Y2286000D01*
X4572000Y2231000D01*
X4572000Y1977000D02*
X4627000Y2032000D01*
X4572000Y2087000D01*
X4517000Y2032000D01*
X4572000Y1977000D01*
X4572000Y1723000D02*
X4627000Y1778000D01*
X4572000Y1833000D01*
X4517000Y1778000D01*
X4572000Y1723000D01*
X4572000Y1469000D02*
X4627000Y1524000D01*
X4572000Y1579000D01*
X4517000Y1524000D01*
X4572000Y1469000D01*
X4572000Y1215000D02*
X4627000Y1270000D01*
X4572000Y1325000D01*
X4517000Y1270000D01*
X4572000Y1215000D01*
D13*
X263929Y-473214D02*
X263929Y-173214D01*
X335357Y-173214D01*
X378214Y-187500D01*
X406786Y-216071D01*
X421071Y-244643D01*
X435357Y-301786D01*
X435357Y-344643D01*
X421071Y-401786D01*
X406786Y-430357D01*
X378214Y-458929D01*
X335357Y-473214D01*
X263929Y-473214D01*
X563929Y-473214D02*
X563929Y-273214D01*
X563929Y-330357D02*
X578214Y-301786D01*
X592500Y-287500D01*
X621071Y-273214D01*
X649643Y-273214D01*
X749643Y-473214D02*
X749643Y-273214D01*
X749643Y-173214D02*
X735357Y-187500D01*
X749643Y-201786D01*
X763928Y-187500D01*
X749643Y-173214D01*
X749643Y-201786D01*
X935357Y-473214D02*
X906786Y-458929D01*
X892500Y-430357D01*
X892500Y-173214D01*
X1092500Y-473214D02*
X1063929Y-458929D01*
X1049643Y-430357D01*
X1049643Y-173214D01*
X1435357Y-473214D02*
X1435357Y-173214D01*
X1535357Y-387500D01*
X1635357Y-173214D01*
X1635357Y-473214D01*
X1906786Y-473214D02*
X1906786Y-316072D01*
X1892500Y-287500D01*
X1863928Y-273214D01*
X1806786Y-273214D01*
X1778214Y-287500D01*
X1906786Y-458929D02*
X1878214Y-473214D01*
X1806786Y-473214D01*
X1778214Y-458929D01*
X1763928Y-430357D01*
X1763928Y-401786D01*
X1778214Y-373214D01*
X1806786Y-358929D01*
X1878214Y-358929D01*
X1906786Y-344643D01*
X2049643Y-273214D02*
X2049643Y-573214D01*
X2049643Y-287500D02*
X2078214Y-273214D01*
X2135357Y-273214D01*
X2163929Y-287500D01*
X2178214Y-301786D01*
X2192500Y-330357D01*
X2192500Y-416071D01*
X2178214Y-444643D01*
X2163929Y-458929D01*
X2135357Y-473214D01*
X2078214Y-473214D01*
X2049643Y-458929D01*
X2321071Y-444643D02*
X2335357Y-458929D01*
X2321071Y-473214D01*
X2306786Y-458929D01*
X2321071Y-444643D01*
X2321071Y-473214D01*
X2321071Y-287500D02*
X2335357Y-301786D01*
X2321071Y-316072D01*
X2306786Y-301786D01*
X2321071Y-287500D01*
X2321071Y-316072D01*
X-47500Y-947500D02*
X-7500Y-987500D01*
X-7500Y-947500D02*
X-47500Y-987500D01*
X321071Y-803214D02*
X349643Y-803214D01*
X378214Y-817500D01*
X392500Y-831786D01*
X406786Y-860357D01*
X421071Y-917500D01*
X421071Y-988929D01*
X406786Y-1046071D01*
X392500Y-1074643D01*
X378214Y-1088929D01*
X349643Y-1103214D01*
X321071Y-1103214D01*
X292500Y-1088929D01*
X278214Y-1074643D01*
X263929Y-1046071D01*
X249643Y-988929D01*
X249643Y-917500D01*
X263929Y-860357D01*
X278214Y-831786D01*
X292500Y-817500D01*
X321071Y-803214D01*
X549643Y-1074643D02*
X563929Y-1088929D01*
X549643Y-1103214D01*
X535357Y-1088929D01*
X549643Y-1074643D01*
X549643Y-1103214D01*
X821071Y-903214D02*
X821071Y-1103214D01*
X749643Y-788929D02*
X678214Y-1003214D01*
X863928Y-1003214D01*
X1035357Y-803214D02*
X1063929Y-803214D01*
X1092500Y-817500D01*
X1106786Y-831786D01*
X1121071Y-860357D01*
X1135357Y-917500D01*
X1135357Y-988929D01*
X1121071Y-1046071D01*
X1106786Y-1074643D01*
X1092500Y-1088929D01*
X1063929Y-1103214D01*
X1035357Y-1103214D01*
X1006786Y-1088929D01*
X992500Y-1074643D01*
X978214Y-1046071D01*
X963928Y-988929D01*
X963928Y-917500D01*
X978214Y-860357D01*
X992500Y-831786D01*
X1006786Y-817500D01*
X1035357Y-803214D01*
X1263929Y-1103214D02*
X1263929Y-903214D01*
X1263929Y-931786D02*
X1278214Y-917500D01*
X1306786Y-903214D01*
X1349643Y-903214D01*
X1378214Y-917500D01*
X1392500Y-946071D01*
X1392500Y-1103214D01*
X1392500Y-946071D02*
X1406786Y-917500D01*
X1435357Y-903214D01*
X1478214Y-903214D01*
X1506786Y-917500D01*
X1521071Y-946071D01*
X1521071Y-1103214D01*
X1663928Y-1103214D02*
X1663928Y-903214D01*
X1663928Y-931786D02*
X1678214Y-917500D01*
X1706786Y-903214D01*
X1749643Y-903214D01*
X1778214Y-917500D01*
X1792500Y-946071D01*
X1792500Y-1103214D01*
X1792500Y-946071D02*
X1806786Y-917500D01*
X1835357Y-903214D01*
X1878214Y-903214D01*
X1906786Y-917500D01*
X1921071Y-946071D01*
X1921071Y-1103214D01*
X2506786Y-788929D02*
X2249643Y-1174643D01*
X2892500Y-803214D02*
X2921071Y-803214D01*
X2949643Y-817500D01*
X2963928Y-831786D01*
X2978214Y-860357D01*
X2992500Y-917500D01*
X2992500Y-988929D01*
X2978214Y-1046071D01*
X2963928Y-1074643D01*
X2949643Y-1088929D01*
X2921071Y-1103214D01*
X2892500Y-1103214D01*
X2863928Y-1088929D01*
X2849643Y-1074643D01*
X2835357Y-1046071D01*
X2821071Y-988929D01*
X2821071Y-917500D01*
X2835357Y-860357D01*
X2849643Y-831786D01*
X2863928Y-817500D01*
X2892500Y-803214D01*
X3121071Y-1074643D02*
X3135357Y-1088929D01*
X3121071Y-1103214D01*
X3106786Y-1088929D01*
X3121071Y-1074643D01*
X3121071Y-1103214D01*
X3321071Y-803214D02*
X3349643Y-803214D01*
X3378214Y-817500D01*
X3392500Y-831786D01*
X3406785Y-860357D01*
X3421071Y-917500D01*
X3421071Y-988929D01*
X3406785Y-1046071D01*
X3392500Y-1074643D01*
X3378214Y-1088929D01*
X3349643Y-1103214D01*
X3321071Y-1103214D01*
X3292500Y-1088929D01*
X3278214Y-1074643D01*
X3263928Y-1046071D01*
X3249643Y-988929D01*
X3249643Y-917500D01*
X3263928Y-860357D01*
X3278214Y-831786D01*
X3292500Y-817500D01*
X3321071Y-803214D01*
X3706785Y-1103214D02*
X3535357Y-1103214D01*
X3621071Y-1103214D02*
X3621071Y-803214D01*
X3592500Y-846071D01*
X3563928Y-874643D01*
X3535357Y-888929D01*
X3963928Y-803214D02*
X3906785Y-803214D01*
X3878214Y-817500D01*
X3863928Y-831786D01*
X3835357Y-874643D01*
X3821071Y-931786D01*
X3821071Y-1046071D01*
X3835357Y-1074643D01*
X3849643Y-1088929D01*
X3878214Y-1103214D01*
X3935357Y-1103214D01*
X3963928Y-1088929D01*
X3978214Y-1074643D01*
X3992500Y-1046071D01*
X3992500Y-974643D01*
X3978214Y-946071D01*
X3963928Y-931786D01*
X3935357Y-917500D01*
X3878214Y-917500D01*
X3849643Y-931786D01*
X3835357Y-946071D01*
X3821071Y-974643D01*
X4106786Y-803214D02*
X4106786Y-860357D01*
X4221071Y-803214D02*
X4221071Y-860357D01*
X4663928Y-1217500D02*
X4649643Y-1203214D01*
X4621071Y-1160357D01*
X4606786Y-1131786D01*
X4592500Y-1088929D01*
X4578214Y-1017500D01*
X4578214Y-960357D01*
X4592500Y-888929D01*
X4606786Y-846071D01*
X4621071Y-817500D01*
X4649643Y-774643D01*
X4663928Y-760357D01*
X4935357Y-1103214D02*
X4763928Y-1103214D01*
X4849643Y-1103214D02*
X4849643Y-803214D01*
X4821071Y-846071D01*
X4792500Y-874643D01*
X4763928Y-888929D01*
X5292500Y-1103214D02*
X5292500Y-803214D01*
X5421071Y-1103214D02*
X5421071Y-946071D01*
X5406786Y-917500D01*
X5378214Y-903214D01*
X5335357Y-903214D01*
X5306786Y-917500D01*
X5292500Y-931786D01*
X5606785Y-1103214D02*
X5578214Y-1088929D01*
X5563928Y-1074643D01*
X5549643Y-1046071D01*
X5549643Y-960357D01*
X5563928Y-931786D01*
X5578214Y-917500D01*
X5606785Y-903214D01*
X5649643Y-903214D01*
X5678214Y-917500D01*
X5692500Y-931786D01*
X5706785Y-960357D01*
X5706785Y-1046071D01*
X5692500Y-1074643D01*
X5678214Y-1088929D01*
X5649643Y-1103214D01*
X5606785Y-1103214D01*
X5878214Y-1103214D02*
X5849643Y-1088929D01*
X5835357Y-1060357D01*
X5835357Y-803214D01*
X6106786Y-1088929D02*
X6078214Y-1103214D01*
X6021071Y-1103214D01*
X5992500Y-1088929D01*
X5978214Y-1060357D01*
X5978214Y-946071D01*
X5992500Y-917500D01*
X6021071Y-903214D01*
X6078214Y-903214D01*
X6106786Y-917500D01*
X6121071Y-946071D01*
X6121071Y-974643D01*
X5978214Y-1003214D01*
X6221071Y-1217500D02*
X6235357Y-1203214D01*
X6263928Y-1160357D01*
X6278214Y-1131786D01*
X6292500Y-1088929D01*
X6306786Y-1017500D01*
X6306786Y-960357D01*
X6292500Y-888929D01*
X6278214Y-846071D01*
X6263928Y-817500D01*
X6235357Y-774643D01*
X6221071Y-760357D01*
X-7500Y-1363500D02*
G75*
G03X-7500Y-1363500I-40000J0D01*
G01*
X321071Y-1199214D02*
X349643Y-1199214D01*
X378214Y-1213500D01*
X392500Y-1227786D01*
X406786Y-1256357D01*
X421071Y-1313500D01*
X421071Y-1384929D01*
X406786Y-1442071D01*
X392500Y-1470643D01*
X378214Y-1484929D01*
X349643Y-1499214D01*
X321071Y-1499214D01*
X292500Y-1484929D01*
X278214Y-1470643D01*
X263929Y-1442071D01*
X249643Y-1384929D01*
X249643Y-1313500D01*
X263929Y-1256357D01*
X278214Y-1227786D01*
X292500Y-1213500D01*
X321071Y-1199214D01*
X549643Y-1470643D02*
X563929Y-1484929D01*
X549643Y-1499214D01*
X535357Y-1484929D01*
X549643Y-1470643D01*
X549643Y-1499214D01*
X735357Y-1327786D02*
X706786Y-1313500D01*
X692500Y-1299214D01*
X678214Y-1270643D01*
X678214Y-1256357D01*
X692500Y-1227786D01*
X706786Y-1213500D01*
X735357Y-1199214D01*
X792500Y-1199214D01*
X821071Y-1213500D01*
X835357Y-1227786D01*
X849643Y-1256357D01*
X849643Y-1270643D01*
X835357Y-1299214D01*
X821071Y-1313500D01*
X792500Y-1327786D01*
X735357Y-1327786D01*
X706786Y-1342072D01*
X692500Y-1356357D01*
X678214Y-1384929D01*
X678214Y-1442071D01*
X692500Y-1470643D01*
X706786Y-1484929D01*
X735357Y-1499214D01*
X792500Y-1499214D01*
X821071Y-1484929D01*
X835357Y-1470643D01*
X849643Y-1442071D01*
X849643Y-1384929D01*
X835357Y-1356357D01*
X821071Y-1342072D01*
X792500Y-1327786D01*
X1035357Y-1199214D02*
X1063929Y-1199214D01*
X1092500Y-1213500D01*
X1106786Y-1227786D01*
X1121071Y-1256357D01*
X1135357Y-1313500D01*
X1135357Y-1384929D01*
X1121071Y-1442071D01*
X1106786Y-1470643D01*
X1092500Y-1484929D01*
X1063929Y-1499214D01*
X1035357Y-1499214D01*
X1006786Y-1484929D01*
X992500Y-1470643D01*
X978214Y-1442071D01*
X963928Y-1384929D01*
X963928Y-1313500D01*
X978214Y-1256357D01*
X992500Y-1227786D01*
X1006786Y-1213500D01*
X1035357Y-1199214D01*
X1263929Y-1499214D02*
X1263929Y-1299214D01*
X1263929Y-1327786D02*
X1278214Y-1313500D01*
X1306786Y-1299214D01*
X1349643Y-1299214D01*
X1378214Y-1313500D01*
X1392500Y-1342072D01*
X1392500Y-1499214D01*
X1392500Y-1342072D02*
X1406786Y-1313500D01*
X1435357Y-1299214D01*
X1478214Y-1299214D01*
X1506786Y-1313500D01*
X1521071Y-1342072D01*
X1521071Y-1499214D01*
X1663928Y-1499214D02*
X1663928Y-1299214D01*
X1663928Y-1327786D02*
X1678214Y-1313500D01*
X1706786Y-1299214D01*
X1749643Y-1299214D01*
X1778214Y-1313500D01*
X1792500Y-1342072D01*
X1792500Y-1499214D01*
X1792500Y-1342072D02*
X1806786Y-1313500D01*
X1835357Y-1299214D01*
X1878214Y-1299214D01*
X1906786Y-1313500D01*
X1921071Y-1342072D01*
X1921071Y-1499214D01*
X2506786Y-1184929D02*
X2249643Y-1570643D01*
X2892500Y-1199214D02*
X2921071Y-1199214D01*
X2949643Y-1213500D01*
X2963928Y-1227786D01*
X2978214Y-1256357D01*
X2992500Y-1313500D01*
X2992500Y-1384929D01*
X2978214Y-1442071D01*
X2963928Y-1470643D01*
X2949643Y-1484929D01*
X2921071Y-1499214D01*
X2892500Y-1499214D01*
X2863928Y-1484929D01*
X2849643Y-1470643D01*
X2835357Y-1442071D01*
X2821071Y-1384929D01*
X2821071Y-1313500D01*
X2835357Y-1256357D01*
X2849643Y-1227786D01*
X2863928Y-1213500D01*
X2892500Y-1199214D01*
X3121071Y-1470643D02*
X3135357Y-1484929D01*
X3121071Y-1499214D01*
X3106786Y-1484929D01*
X3121071Y-1470643D01*
X3121071Y-1499214D01*
X3321071Y-1199214D02*
X3349643Y-1199214D01*
X3378214Y-1213500D01*
X3392500Y-1227786D01*
X3406785Y-1256357D01*
X3421071Y-1313500D01*
X3421071Y-1384929D01*
X3406785Y-1442071D01*
X3392500Y-1470643D01*
X3378214Y-1484929D01*
X3349643Y-1499214D01*
X3321071Y-1499214D01*
X3292500Y-1484929D01*
X3278214Y-1470643D01*
X3263928Y-1442071D01*
X3249643Y-1384929D01*
X3249643Y-1313500D01*
X3263928Y-1256357D01*
X3278214Y-1227786D01*
X3292500Y-1213500D01*
X3321071Y-1199214D01*
X3521071Y-1199214D02*
X3706785Y-1199214D01*
X3606785Y-1313500D01*
X3649643Y-1313500D01*
X3678214Y-1327786D01*
X3692500Y-1342072D01*
X3706785Y-1370643D01*
X3706785Y-1442071D01*
X3692500Y-1470643D01*
X3678214Y-1484929D01*
X3649643Y-1499214D01*
X3563928Y-1499214D01*
X3535357Y-1484929D01*
X3521071Y-1470643D01*
X3992500Y-1499214D02*
X3821071Y-1499214D01*
X3906785Y-1499214D02*
X3906785Y-1199214D01*
X3878214Y-1242072D01*
X3849643Y-1270643D01*
X3821071Y-1284929D01*
X4106786Y-1199214D02*
X4106786Y-1256357D01*
X4221071Y-1199214D02*
X4221071Y-1256357D01*
X4663928Y-1613500D02*
X4649643Y-1599214D01*
X4621071Y-1556357D01*
X4606786Y-1527786D01*
X4592500Y-1484929D01*
X4578214Y-1413500D01*
X4578214Y-1356357D01*
X4592500Y-1284929D01*
X4606786Y-1242072D01*
X4621071Y-1213500D01*
X4649643Y-1170643D01*
X4663928Y-1156357D01*
X4906786Y-1299214D02*
X4906786Y-1499214D01*
X4835357Y-1184929D02*
X4763928Y-1399214D01*
X4949643Y-1399214D01*
X5292500Y-1499214D02*
X5292500Y-1199214D01*
X5421071Y-1499214D02*
X5421071Y-1342072D01*
X5406786Y-1313500D01*
X5378214Y-1299214D01*
X5335357Y-1299214D01*
X5306786Y-1313500D01*
X5292500Y-1327786D01*
X5606785Y-1499214D02*
X5578214Y-1484929D01*
X5563928Y-1470643D01*
X5549643Y-1442071D01*
X5549643Y-1356357D01*
X5563928Y-1327786D01*
X5578214Y-1313500D01*
X5606785Y-1299214D01*
X5649643Y-1299214D01*
X5678214Y-1313500D01*
X5692500Y-1327786D01*
X5706785Y-1356357D01*
X5706785Y-1442071D01*
X5692500Y-1470643D01*
X5678214Y-1484929D01*
X5649643Y-1499214D01*
X5606785Y-1499214D01*
X5878214Y-1499214D02*
X5849643Y-1484929D01*
X5835357Y-1456357D01*
X5835357Y-1199214D01*
X6106786Y-1484929D02*
X6078214Y-1499214D01*
X6021071Y-1499214D01*
X5992500Y-1484929D01*
X5978214Y-1456357D01*
X5978214Y-1342072D01*
X5992500Y-1313500D01*
X6021071Y-1299214D01*
X6078214Y-1299214D01*
X6106786Y-1313500D01*
X6121071Y-1342072D01*
X6121071Y-1370643D01*
X5978214Y-1399214D01*
X6235357Y-1484929D02*
X6263928Y-1499214D01*
X6321071Y-1499214D01*
X6349643Y-1484929D01*
X6363928Y-1456357D01*
X6363928Y-1442071D01*
X6349643Y-1413500D01*
X6321071Y-1399214D01*
X6278214Y-1399214D01*
X6249643Y-1384929D01*
X6235357Y-1356357D01*
X6235357Y-1342072D01*
X6249643Y-1313500D01*
X6278214Y-1299214D01*
X6321071Y-1299214D01*
X6349643Y-1313500D01*
X6463928Y-1613500D02*
X6478214Y-1599214D01*
X6506786Y-1556357D01*
X6521071Y-1527786D01*
X6535357Y-1484929D01*
X6549643Y-1413500D01*
X6549643Y-1356357D01*
X6535357Y-1284929D01*
X6521071Y-1242072D01*
X6506786Y-1213500D01*
X6478214Y-1170643D01*
X6463928Y-1156357D01*
X-55000Y-1712000D02*
X-55000Y-1807000D01*
X-102500Y-1759500D02*
X-7500Y-1759500D01*
X321071Y-1595214D02*
X349643Y-1595214D01*
X378214Y-1609500D01*
X392500Y-1623786D01*
X406786Y-1652357D01*
X421071Y-1709500D01*
X421071Y-1780929D01*
X406786Y-1838071D01*
X392500Y-1866643D01*
X378214Y-1880929D01*
X349643Y-1895214D01*
X321071Y-1895214D01*
X292500Y-1880929D01*
X278214Y-1866643D01*
X263929Y-1838071D01*
X249643Y-1780929D01*
X249643Y-1709500D01*
X263929Y-1652357D01*
X278214Y-1623786D01*
X292500Y-1609500D01*
X321071Y-1595214D01*
X549643Y-1866643D02*
X563929Y-1880929D01*
X549643Y-1895214D01*
X535357Y-1880929D01*
X549643Y-1866643D01*
X549643Y-1895214D01*
X706786Y-1895214D02*
X763928Y-1895214D01*
X792500Y-1880929D01*
X806786Y-1866643D01*
X835357Y-1823786D01*
X849643Y-1766643D01*
X849643Y-1652357D01*
X835357Y-1623786D01*
X821071Y-1609500D01*
X792500Y-1595214D01*
X735357Y-1595214D01*
X706786Y-1609500D01*
X692500Y-1623786D01*
X678214Y-1652357D01*
X678214Y-1723786D01*
X692500Y-1752357D01*
X706786Y-1766643D01*
X735357Y-1780929D01*
X792500Y-1780929D01*
X821071Y-1766643D01*
X835357Y-1752357D01*
X849643Y-1723786D01*
X1121071Y-1595214D02*
X978214Y-1595214D01*
X963928Y-1738071D01*
X978214Y-1723786D01*
X1006786Y-1709500D01*
X1078214Y-1709500D01*
X1106786Y-1723786D01*
X1121071Y-1738071D01*
X1135357Y-1766643D01*
X1135357Y-1838071D01*
X1121071Y-1866643D01*
X1106786Y-1880929D01*
X1078214Y-1895214D01*
X1006786Y-1895214D01*
X978214Y-1880929D01*
X963928Y-1866643D01*
X1263929Y-1895214D02*
X1263929Y-1695214D01*
X1263929Y-1723786D02*
X1278214Y-1709500D01*
X1306786Y-1695214D01*
X1349643Y-1695214D01*
X1378214Y-1709500D01*
X1392500Y-1738071D01*
X1392500Y-1895214D01*
X1392500Y-1738071D02*
X1406786Y-1709500D01*
X1435357Y-1695214D01*
X1478214Y-1695214D01*
X1506786Y-1709500D01*
X1521071Y-1738071D01*
X1521071Y-1895214D01*
X1663928Y-1895214D02*
X1663928Y-1695214D01*
X1663928Y-1723786D02*
X1678214Y-1709500D01*
X1706786Y-1695214D01*
X1749643Y-1695214D01*
X1778214Y-1709500D01*
X1792500Y-1738071D01*
X1792500Y-1895214D01*
X1792500Y-1738071D02*
X1806786Y-1709500D01*
X1835357Y-1695214D01*
X1878214Y-1695214D01*
X1906786Y-1709500D01*
X1921071Y-1738071D01*
X1921071Y-1895214D01*
X2506786Y-1580929D02*
X2249643Y-1966643D01*
X2892500Y-1595214D02*
X2921071Y-1595214D01*
X2949643Y-1609500D01*
X2963928Y-1623786D01*
X2978214Y-1652357D01*
X2992500Y-1709500D01*
X2992500Y-1780929D01*
X2978214Y-1838071D01*
X2963928Y-1866643D01*
X2949643Y-1880929D01*
X2921071Y-1895214D01*
X2892500Y-1895214D01*
X2863928Y-1880929D01*
X2849643Y-1866643D01*
X2835357Y-1838071D01*
X2821071Y-1780929D01*
X2821071Y-1709500D01*
X2835357Y-1652357D01*
X2849643Y-1623786D01*
X2863928Y-1609500D01*
X2892500Y-1595214D01*
X3121071Y-1866643D02*
X3135357Y-1880929D01*
X3121071Y-1895214D01*
X3106786Y-1880929D01*
X3121071Y-1866643D01*
X3121071Y-1895214D01*
X3321071Y-1595214D02*
X3349643Y-1595214D01*
X3378214Y-1609500D01*
X3392500Y-1623786D01*
X3406785Y-1652357D01*
X3421071Y-1709500D01*
X3421071Y-1780929D01*
X3406785Y-1838071D01*
X3392500Y-1866643D01*
X3378214Y-1880929D01*
X3349643Y-1895214D01*
X3321071Y-1895214D01*
X3292500Y-1880929D01*
X3278214Y-1866643D01*
X3263928Y-1838071D01*
X3249643Y-1780929D01*
X3249643Y-1709500D01*
X3263928Y-1652357D01*
X3278214Y-1623786D01*
X3292500Y-1609500D01*
X3321071Y-1595214D01*
X3521071Y-1595214D02*
X3706785Y-1595214D01*
X3606785Y-1709500D01*
X3649643Y-1709500D01*
X3678214Y-1723786D01*
X3692500Y-1738071D01*
X3706785Y-1766643D01*
X3706785Y-1838071D01*
X3692500Y-1866643D01*
X3678214Y-1880929D01*
X3649643Y-1895214D01*
X3563928Y-1895214D01*
X3535357Y-1880929D01*
X3521071Y-1866643D01*
X3806785Y-1595214D02*
X4006785Y-1595214D01*
X3878214Y-1895214D01*
X4106786Y-1595214D02*
X4106786Y-1652357D01*
X4221071Y-1595214D02*
X4221071Y-1652357D01*
X4663928Y-2009500D02*
X4649643Y-1995214D01*
X4621071Y-1952357D01*
X4606786Y-1923786D01*
X4592500Y-1880929D01*
X4578214Y-1809500D01*
X4578214Y-1752357D01*
X4592500Y-1680929D01*
X4606786Y-1638071D01*
X4621071Y-1609500D01*
X4649643Y-1566643D01*
X4663928Y-1552357D01*
X4906786Y-1595214D02*
X4849643Y-1595214D01*
X4821071Y-1609500D01*
X4806786Y-1623786D01*
X4778214Y-1666643D01*
X4763928Y-1723786D01*
X4763928Y-1838071D01*
X4778214Y-1866643D01*
X4792500Y-1880929D01*
X4821071Y-1895214D01*
X4878214Y-1895214D01*
X4906786Y-1880929D01*
X4921071Y-1866643D01*
X4935357Y-1838071D01*
X4935357Y-1766643D01*
X4921071Y-1738071D01*
X4906786Y-1723786D01*
X4878214Y-1709500D01*
X4821071Y-1709500D01*
X4792500Y-1723786D01*
X4778214Y-1738071D01*
X4763928Y-1766643D01*
X5292500Y-1895214D02*
X5292500Y-1595214D01*
X5421071Y-1895214D02*
X5421071Y-1738071D01*
X5406786Y-1709500D01*
X5378214Y-1695214D01*
X5335357Y-1695214D01*
X5306786Y-1709500D01*
X5292500Y-1723786D01*
X5606785Y-1895214D02*
X5578214Y-1880929D01*
X5563928Y-1866643D01*
X5549643Y-1838071D01*
X5549643Y-1752357D01*
X5563928Y-1723786D01*
X5578214Y-1709500D01*
X5606785Y-1695214D01*
X5649643Y-1695214D01*
X5678214Y-1709500D01*
X5692500Y-1723786D01*
X5706785Y-1752357D01*
X5706785Y-1838071D01*
X5692500Y-1866643D01*
X5678214Y-1880929D01*
X5649643Y-1895214D01*
X5606785Y-1895214D01*
X5878214Y-1895214D02*
X5849643Y-1880929D01*
X5835357Y-1852357D01*
X5835357Y-1595214D01*
X6106786Y-1880929D02*
X6078214Y-1895214D01*
X6021071Y-1895214D01*
X5992500Y-1880929D01*
X5978214Y-1852357D01*
X5978214Y-1738071D01*
X5992500Y-1709500D01*
X6021071Y-1695214D01*
X6078214Y-1695214D01*
X6106786Y-1709500D01*
X6121071Y-1738071D01*
X6121071Y-1766643D01*
X5978214Y-1795214D01*
X6235357Y-1880929D02*
X6263928Y-1895214D01*
X6321071Y-1895214D01*
X6349643Y-1880929D01*
X6363928Y-1852357D01*
X6363928Y-1838071D01*
X6349643Y-1809500D01*
X6321071Y-1795214D01*
X6278214Y-1795214D01*
X6249643Y-1780929D01*
X6235357Y-1752357D01*
X6235357Y-1738071D01*
X6249643Y-1709500D01*
X6278214Y-1695214D01*
X6321071Y-1695214D01*
X6349643Y-1709500D01*
X6463928Y-2009500D02*
X6478214Y-1995214D01*
X6506786Y-1952357D01*
X6521071Y-1923786D01*
X6535357Y-1880929D01*
X6549643Y-1809500D01*
X6549643Y-1752357D01*
X6535357Y-1680929D01*
X6521071Y-1638071D01*
X6506786Y-1609500D01*
X6478214Y-1566643D01*
X6463928Y-1552357D01*
X-22379Y-2191422D02*
X-22379Y-2119579D01*
X-94221Y-2119579D01*
X-94221Y-2191422D01*
X-22379Y-2191422D01*
X421071Y-2291214D02*
X249643Y-2291214D01*
X335357Y-2291214D02*
X335357Y-1991214D01*
X306786Y-2034071D01*
X278214Y-2062643D01*
X249643Y-2076929D01*
X549643Y-2262643D02*
X563929Y-2276929D01*
X549643Y-2291214D01*
X535357Y-2276929D01*
X549643Y-2262643D01*
X549643Y-2291214D01*
X749643Y-1991214D02*
X778214Y-1991214D01*
X806786Y-2005500D01*
X821071Y-2019786D01*
X835357Y-2048357D01*
X849643Y-2105500D01*
X849643Y-2176929D01*
X835357Y-2234072D01*
X821071Y-2262643D01*
X806786Y-2276929D01*
X778214Y-2291214D01*
X749643Y-2291214D01*
X721071Y-2276929D01*
X706786Y-2262643D01*
X692500Y-2234072D01*
X678214Y-2176929D01*
X678214Y-2105500D01*
X692500Y-2048357D01*
X706786Y-2019786D01*
X721071Y-2005500D01*
X749643Y-1991214D01*
X963928Y-2019786D02*
X978214Y-2005500D01*
X1006786Y-1991214D01*
X1078214Y-1991214D01*
X1106786Y-2005500D01*
X1121071Y-2019786D01*
X1135357Y-2048357D01*
X1135357Y-2076929D01*
X1121071Y-2119786D01*
X949643Y-2291214D01*
X1135357Y-2291214D01*
X1263929Y-2291214D02*
X1263929Y-2091214D01*
X1263929Y-2119786D02*
X1278214Y-2105500D01*
X1306786Y-2091214D01*
X1349643Y-2091214D01*
X1378214Y-2105500D01*
X1392500Y-2134072D01*
X1392500Y-2291214D01*
X1392500Y-2134072D02*
X1406786Y-2105500D01*
X1435357Y-2091214D01*
X1478214Y-2091214D01*
X1506786Y-2105500D01*
X1521071Y-2134072D01*
X1521071Y-2291214D01*
X1663928Y-2291214D02*
X1663928Y-2091214D01*
X1663928Y-2119786D02*
X1678214Y-2105500D01*
X1706786Y-2091214D01*
X1749643Y-2091214D01*
X1778214Y-2105500D01*
X1792500Y-2134072D01*
X1792500Y-2291214D01*
X1792500Y-2134072D02*
X1806786Y-2105500D01*
X1835357Y-2091214D01*
X1878214Y-2091214D01*
X1906786Y-2105500D01*
X1921071Y-2134072D01*
X1921071Y-2291214D01*
X2506786Y-1976929D02*
X2249643Y-2362643D01*
X2892500Y-1991214D02*
X2921071Y-1991214D01*
X2949643Y-2005500D01*
X2963928Y-2019786D01*
X2978214Y-2048357D01*
X2992500Y-2105500D01*
X2992500Y-2176929D01*
X2978214Y-2234072D01*
X2963928Y-2262643D01*
X2949643Y-2276929D01*
X2921071Y-2291214D01*
X2892500Y-2291214D01*
X2863928Y-2276929D01*
X2849643Y-2262643D01*
X2835357Y-2234072D01*
X2821071Y-2176929D01*
X2821071Y-2105500D01*
X2835357Y-2048357D01*
X2849643Y-2019786D01*
X2863928Y-2005500D01*
X2892500Y-1991214D01*
X3121071Y-2262643D02*
X3135357Y-2276929D01*
X3121071Y-2291214D01*
X3106786Y-2276929D01*
X3121071Y-2262643D01*
X3121071Y-2291214D01*
X3321071Y-1991214D02*
X3349643Y-1991214D01*
X3378214Y-2005500D01*
X3392500Y-2019786D01*
X3406785Y-2048357D01*
X3421071Y-2105500D01*
X3421071Y-2176929D01*
X3406785Y-2234072D01*
X3392500Y-2262643D01*
X3378214Y-2276929D01*
X3349643Y-2291214D01*
X3321071Y-2291214D01*
X3292500Y-2276929D01*
X3278214Y-2262643D01*
X3263928Y-2234072D01*
X3249643Y-2176929D01*
X3249643Y-2105500D01*
X3263928Y-2048357D01*
X3278214Y-2019786D01*
X3292500Y-2005500D01*
X3321071Y-1991214D01*
X3678214Y-2091214D02*
X3678214Y-2291214D01*
X3606785Y-1976929D02*
X3535357Y-2191214D01*
X3721071Y-2191214D01*
X3892500Y-1991214D02*
X3921071Y-1991214D01*
X3949643Y-2005500D01*
X3963928Y-2019786D01*
X3978214Y-2048357D01*
X3992500Y-2105500D01*
X3992500Y-2176929D01*
X3978214Y-2234072D01*
X3963928Y-2262643D01*
X3949643Y-2276929D01*
X3921071Y-2291214D01*
X3892500Y-2291214D01*
X3863928Y-2276929D01*
X3849643Y-2262643D01*
X3835357Y-2234072D01*
X3821071Y-2176929D01*
X3821071Y-2105500D01*
X3835357Y-2048357D01*
X3849643Y-2019786D01*
X3863928Y-2005500D01*
X3892500Y-1991214D01*
X4106786Y-1991214D02*
X4106786Y-2048357D01*
X4221071Y-1991214D02*
X4221071Y-2048357D01*
X4663928Y-2405500D02*
X4649643Y-2391214D01*
X4621071Y-2348357D01*
X4606786Y-2319786D01*
X4592500Y-2276929D01*
X4578214Y-2205500D01*
X4578214Y-2148357D01*
X4592500Y-2076929D01*
X4606786Y-2034071D01*
X4621071Y-2005500D01*
X4649643Y-1962643D01*
X4663928Y-1948357D01*
X4935357Y-2291214D02*
X4763928Y-2291214D01*
X4849643Y-2291214D02*
X4849643Y-1991214D01*
X4821071Y-2034071D01*
X4792500Y-2062643D01*
X4763928Y-2076929D01*
X5192500Y-1991214D02*
X5135357Y-1991214D01*
X5106786Y-2005500D01*
X5092500Y-2019786D01*
X5063928Y-2062643D01*
X5049643Y-2119786D01*
X5049643Y-2234072D01*
X5063928Y-2262643D01*
X5078214Y-2276929D01*
X5106786Y-2291214D01*
X5163928Y-2291214D01*
X5192500Y-2276929D01*
X5206786Y-2262643D01*
X5221071Y-2234072D01*
X5221071Y-2162643D01*
X5206786Y-2134072D01*
X5192500Y-2119786D01*
X5163928Y-2105500D01*
X5106786Y-2105500D01*
X5078214Y-2119786D01*
X5063928Y-2134072D01*
X5049643Y-2162643D01*
X5578214Y-2291214D02*
X5578214Y-1991214D01*
X5706785Y-2291214D02*
X5706785Y-2134072D01*
X5692500Y-2105500D01*
X5663928Y-2091214D01*
X5621071Y-2091214D01*
X5592500Y-2105500D01*
X5578214Y-2119786D01*
X5892500Y-2291214D02*
X5863928Y-2276929D01*
X5849643Y-2262643D01*
X5835357Y-2234072D01*
X5835357Y-2148357D01*
X5849643Y-2119786D01*
X5863928Y-2105500D01*
X5892500Y-2091214D01*
X5935357Y-2091214D01*
X5963928Y-2105500D01*
X5978214Y-2119786D01*
X5992500Y-2148357D01*
X5992500Y-2234072D01*
X5978214Y-2262643D01*
X5963928Y-2276929D01*
X5935357Y-2291214D01*
X5892500Y-2291214D01*
X6163928Y-2291214D02*
X6135357Y-2276929D01*
X6121071Y-2248357D01*
X6121071Y-1991214D01*
X6392500Y-2276929D02*
X6363928Y-2291214D01*
X6306786Y-2291214D01*
X6278214Y-2276929D01*
X6263928Y-2248357D01*
X6263928Y-2134072D01*
X6278214Y-2105500D01*
X6306786Y-2091214D01*
X6363928Y-2091214D01*
X6392500Y-2105500D01*
X6406786Y-2134072D01*
X6406786Y-2162643D01*
X6263928Y-2191214D01*
X6521071Y-2276929D02*
X6549643Y-2291214D01*
X6606786Y-2291214D01*
X6635357Y-2276929D01*
X6649643Y-2248357D01*
X6649643Y-2234072D01*
X6635357Y-2205500D01*
X6606786Y-2191214D01*
X6563928Y-2191214D01*
X6535357Y-2176929D01*
X6521071Y-2148357D01*
X6521071Y-2134072D01*
X6535357Y-2105500D01*
X6563928Y-2091214D01*
X6606786Y-2091214D01*
X6635357Y-2105500D01*
X6749643Y-2405500D02*
X6763928Y-2391214D01*
X6792500Y-2348357D01*
X6806786Y-2319786D01*
X6821071Y-2276929D01*
X6835357Y-2205500D01*
X6835357Y-2148357D01*
X6821071Y-2076929D01*
X6806786Y-2034071D01*
X6792500Y-2005500D01*
X6763928Y-1962643D01*
X6749643Y-1948357D01*
X-62500Y-2606500D02*
X-7500Y-2551500D01*
X-62500Y-2496500D01*
X-117500Y-2551500D01*
X-62500Y-2606500D01*
X421071Y-2687214D02*
X249643Y-2687214D01*
X335357Y-2687214D02*
X335357Y-2387214D01*
X306786Y-2430072D01*
X278214Y-2458643D01*
X249643Y-2472929D01*
X549643Y-2658643D02*
X563929Y-2672929D01*
X549643Y-2687214D01*
X535357Y-2672929D01*
X549643Y-2658643D01*
X549643Y-2687214D01*
X849643Y-2687214D02*
X678214Y-2687214D01*
X763928Y-2687214D02*
X763928Y-2387214D01*
X735357Y-2430072D01*
X706786Y-2458643D01*
X678214Y-2472929D01*
X1035357Y-2387214D02*
X1063929Y-2387214D01*
X1092500Y-2401500D01*
X1106786Y-2415786D01*
X1121071Y-2444357D01*
X1135357Y-2501500D01*
X1135357Y-2572929D01*
X1121071Y-2630072D01*
X1106786Y-2658643D01*
X1092500Y-2672929D01*
X1063929Y-2687214D01*
X1035357Y-2687214D01*
X1006786Y-2672929D01*
X992500Y-2658643D01*
X978214Y-2630072D01*
X963928Y-2572929D01*
X963928Y-2501500D01*
X978214Y-2444357D01*
X992500Y-2415786D01*
X1006786Y-2401500D01*
X1035357Y-2387214D01*
X1263929Y-2687214D02*
X1263929Y-2487214D01*
X1263929Y-2515786D02*
X1278214Y-2501500D01*
X1306786Y-2487214D01*
X1349643Y-2487214D01*
X1378214Y-2501500D01*
X1392500Y-2530072D01*
X1392500Y-2687214D01*
X1392500Y-2530072D02*
X1406786Y-2501500D01*
X1435357Y-2487214D01*
X1478214Y-2487214D01*
X1506786Y-2501500D01*
X1521071Y-2530072D01*
X1521071Y-2687214D01*
X1663928Y-2687214D02*
X1663928Y-2487214D01*
X1663928Y-2515786D02*
X1678214Y-2501500D01*
X1706786Y-2487214D01*
X1749643Y-2487214D01*
X1778214Y-2501500D01*
X1792500Y-2530072D01*
X1792500Y-2687214D01*
X1792500Y-2530072D02*
X1806786Y-2501500D01*
X1835357Y-2487214D01*
X1878214Y-2487214D01*
X1906786Y-2501500D01*
X1921071Y-2530072D01*
X1921071Y-2687214D01*
X2506786Y-2372929D02*
X2249643Y-2758643D01*
X2892500Y-2387214D02*
X2921071Y-2387214D01*
X2949643Y-2401500D01*
X2963928Y-2415786D01*
X2978214Y-2444357D01*
X2992500Y-2501500D01*
X2992500Y-2572929D01*
X2978214Y-2630072D01*
X2963928Y-2658643D01*
X2949643Y-2672929D01*
X2921071Y-2687214D01*
X2892500Y-2687214D01*
X2863928Y-2672929D01*
X2849643Y-2658643D01*
X2835357Y-2630072D01*
X2821071Y-2572929D01*
X2821071Y-2501500D01*
X2835357Y-2444357D01*
X2849643Y-2415786D01*
X2863928Y-2401500D01*
X2892500Y-2387214D01*
X3121071Y-2658643D02*
X3135357Y-2672929D01*
X3121071Y-2687214D01*
X3106786Y-2672929D01*
X3121071Y-2658643D01*
X3121071Y-2687214D01*
X3321071Y-2387214D02*
X3349643Y-2387214D01*
X3378214Y-2401500D01*
X3392500Y-2415786D01*
X3406785Y-2444357D01*
X3421071Y-2501500D01*
X3421071Y-2572929D01*
X3406785Y-2630072D01*
X3392500Y-2658643D01*
X3378214Y-2672929D01*
X3349643Y-2687214D01*
X3321071Y-2687214D01*
X3292500Y-2672929D01*
X3278214Y-2658643D01*
X3263928Y-2630072D01*
X3249643Y-2572929D01*
X3249643Y-2501500D01*
X3263928Y-2444357D01*
X3278214Y-2415786D01*
X3292500Y-2401500D01*
X3321071Y-2387214D01*
X3678214Y-2487214D02*
X3678214Y-2687214D01*
X3606785Y-2372929D02*
X3535357Y-2587214D01*
X3721071Y-2587214D01*
X3806785Y-2387214D02*
X3992500Y-2387214D01*
X3892500Y-2501500D01*
X3935357Y-2501500D01*
X3963928Y-2515786D01*
X3978214Y-2530072D01*
X3992500Y-2558643D01*
X3992500Y-2630072D01*
X3978214Y-2658643D01*
X3963928Y-2672929D01*
X3935357Y-2687214D01*
X3849643Y-2687214D01*
X3821071Y-2672929D01*
X3806785Y-2658643D01*
X4106786Y-2387214D02*
X4106786Y-2444357D01*
X4221071Y-2387214D02*
X4221071Y-2444357D01*
X4663928Y-2801500D02*
X4649643Y-2787214D01*
X4621071Y-2744357D01*
X4606786Y-2715786D01*
X4592500Y-2672929D01*
X4578214Y-2601500D01*
X4578214Y-2544357D01*
X4592500Y-2472929D01*
X4606786Y-2430072D01*
X4621071Y-2401500D01*
X4649643Y-2358643D01*
X4663928Y-2344357D01*
X4921071Y-2387214D02*
X4778214Y-2387214D01*
X4763928Y-2530072D01*
X4778214Y-2515786D01*
X4806786Y-2501500D01*
X4878214Y-2501500D01*
X4906786Y-2515786D01*
X4921071Y-2530072D01*
X4935357Y-2558643D01*
X4935357Y-2630072D01*
X4921071Y-2658643D01*
X4906786Y-2672929D01*
X4878214Y-2687214D01*
X4806786Y-2687214D01*
X4778214Y-2672929D01*
X4763928Y-2658643D01*
X5049643Y-2415786D02*
X5063928Y-2401500D01*
X5092500Y-2387214D01*
X5163928Y-2387214D01*
X5192500Y-2401500D01*
X5206786Y-2415786D01*
X5221071Y-2444357D01*
X5221071Y-2472929D01*
X5206786Y-2515786D01*
X5035357Y-2687214D01*
X5221071Y-2687214D01*
X5578214Y-2687214D02*
X5578214Y-2387214D01*
X5706785Y-2687214D02*
X5706785Y-2530072D01*
X5692500Y-2501500D01*
X5663928Y-2487214D01*
X5621071Y-2487214D01*
X5592500Y-2501500D01*
X5578214Y-2515786D01*
X5892500Y-2687214D02*
X5863928Y-2672929D01*
X5849643Y-2658643D01*
X5835357Y-2630072D01*
X5835357Y-2544357D01*
X5849643Y-2515786D01*
X5863928Y-2501500D01*
X5892500Y-2487214D01*
X5935357Y-2487214D01*
X5963928Y-2501500D01*
X5978214Y-2515786D01*
X5992500Y-2544357D01*
X5992500Y-2630072D01*
X5978214Y-2658643D01*
X5963928Y-2672929D01*
X5935357Y-2687214D01*
X5892500Y-2687214D01*
X6163928Y-2687214D02*
X6135357Y-2672929D01*
X6121071Y-2644357D01*
X6121071Y-2387214D01*
X6392500Y-2672929D02*
X6363928Y-2687214D01*
X6306786Y-2687214D01*
X6278214Y-2672929D01*
X6263928Y-2644357D01*
X6263928Y-2530072D01*
X6278214Y-2501500D01*
X6306786Y-2487214D01*
X6363928Y-2487214D01*
X6392500Y-2501500D01*
X6406786Y-2530072D01*
X6406786Y-2558643D01*
X6263928Y-2587214D01*
X6521071Y-2672929D02*
X6549643Y-2687214D01*
X6606786Y-2687214D01*
X6635357Y-2672929D01*
X6649643Y-2644357D01*
X6649643Y-2630072D01*
X6635357Y-2601500D01*
X6606786Y-2587214D01*
X6563928Y-2587214D01*
X6535357Y-2572929D01*
X6521071Y-2544357D01*
X6521071Y-2530072D01*
X6535357Y-2501500D01*
X6563928Y-2487214D01*
X6606786Y-2487214D01*
X6635357Y-2501500D01*
X6749643Y-2801500D02*
X6763928Y-2787214D01*
X6792500Y-2744357D01*
X6806786Y-2715786D01*
X6821071Y-2672929D01*
X6835357Y-2601500D01*
X6835357Y-2544357D01*
X6821071Y-2472929D01*
X6806786Y-2430072D01*
X6792500Y-2401500D01*
X6763928Y-2358643D01*
X6749643Y-2344357D01*
M02*
