%TF.GenerationSoftware,KiCad,Pcbnew,4.0.7*%
%TF.CreationDate,2017-09-16T19:45:42+02:00*%
%TF.ProjectId,ti99-usb-key,746939392D7573622D6B65792E6B6963,3.0*%
%TF.FileFunction,Copper,L1,Top,Signal*%
%FSLAX46Y46*%
G04 Gerber Fmt 4.6, Leading zero omitted, Abs format (unit mm)*
G04 Created by KiCad (PCBNEW 4.0.7) date 09/16/17 19:45:42*
%MOMM*%
%LPD*%
G01*
G04 APERTURE LIST*
%ADD10C,0.101600*%
%ADD11C,1.600000*%
%ADD12R,1.600000X1.600000*%
%ADD13R,1.727200X1.727200*%
%ADD14O,1.727200X1.727200*%
%ADD15R,2.000000X2.000000*%
%ADD16C,2.000000*%
%ADD17C,0.600000*%
%ADD18C,0.250000*%
G04 APERTURE END LIST*
D10*
D11*
X25400000Y20320000D03*
X10160000Y20320000D03*
X25400000Y22860000D03*
X25400000Y25400000D03*
X25400000Y27940000D03*
X25400000Y30480000D03*
X25400000Y33020000D03*
X25400000Y35560000D03*
X25400000Y38100000D03*
X25400000Y40640000D03*
X25400000Y43180000D03*
X25400000Y45720000D03*
X25400000Y48260000D03*
X25400000Y50800000D03*
X25400000Y53340000D03*
X10160000Y22860000D03*
X10160000Y25400000D03*
X10160000Y27940000D03*
X10160000Y30480000D03*
X10160000Y33020000D03*
X10160000Y35560000D03*
X10160000Y38100000D03*
X10160000Y40640000D03*
X10160000Y43180000D03*
X10160000Y45720000D03*
X10160000Y48260000D03*
X10160000Y50800000D03*
D12*
X10160000Y53340000D03*
D13*
X25400000Y6350000D03*
D14*
X25400000Y3810000D03*
X22860000Y6350000D03*
X22860000Y3810000D03*
X20320000Y6350000D03*
X20320000Y3810000D03*
X17780000Y6350000D03*
X17780000Y3810000D03*
X15240000Y6350000D03*
X15240000Y3810000D03*
X12700000Y6350000D03*
X12700000Y3810000D03*
X10160000Y6350000D03*
X10160000Y3810000D03*
X7620000Y6350000D03*
X7620000Y3810000D03*
D15*
X2540000Y48260000D03*
D16*
X2540000Y45720000D03*
X2540000Y43180000D03*
X2540000Y40640000D03*
X2540000Y38100000D03*
D12*
X30480000Y40640000D03*
D11*
X30480000Y38100000D03*
X30480000Y35560000D03*
X30480000Y33020000D03*
X30480000Y30480000D03*
X30480000Y27940000D03*
X30480000Y25400000D03*
X30480000Y22860000D03*
X30480000Y20320000D03*
X30480000Y17780000D03*
X30480000Y15240000D03*
X30480000Y12700000D03*
X45720000Y12700000D03*
X45720000Y15240000D03*
X45720000Y17780000D03*
X45720000Y20320000D03*
X45720000Y22860000D03*
X45720000Y25400000D03*
X45720000Y27940000D03*
X45720000Y30480000D03*
X45720000Y33020000D03*
X45720000Y35560000D03*
X45720000Y38100000D03*
X45720000Y40640000D03*
D12*
X37465000Y7112000D03*
D11*
X34965000Y7112000D03*
D12*
X25908000Y16002000D03*
D11*
X25908000Y13502000D03*
D15*
X42037000Y7112000D03*
D17*
X35560000Y20320000D03*
D18*
X37465000Y7112000D02*
X42037000Y7112000D01*
X37465000Y8636000D02*
X37465000Y7112000D01*
X37465000Y8636000D02*
X37465000Y8636000D01*
X28575000Y53340000D02*
X37465000Y44450000D01*
X37465000Y44450000D02*
X37465000Y8636000D01*
X25400000Y53340000D02*
X28575000Y53340000D01*
X35560000Y15240000D02*
X35560000Y13335000D01*
X34965000Y12740000D02*
X34965000Y7112000D01*
X35560000Y13335000D02*
X34965000Y12740000D01*
X35560000Y15494000D02*
X35560000Y15240000D01*
X35560000Y15240000D02*
X35306000Y15240000D01*
X35560000Y18415000D02*
X35560000Y15494000D01*
X35306000Y15240000D02*
X32385000Y15240000D01*
X30480000Y15240000D02*
X32385000Y15240000D01*
X35560000Y20320000D02*
X35560000Y43180000D01*
X22225000Y53340000D02*
X10160000Y53340000D01*
X23495000Y52070000D02*
X22225000Y53340000D01*
X26670000Y52070000D02*
X23495000Y52070000D01*
X35560000Y43180000D02*
X26670000Y52070000D01*
X35560000Y20320000D02*
X35560000Y18415000D01*
X10160000Y53340000D02*
X8890000Y53340000D01*
X8890000Y53340000D02*
X4445000Y48895000D01*
X4445000Y48895000D02*
X3810000Y48260000D01*
X3810000Y48260000D02*
X2540000Y48260000D01*
X3175000Y48260000D02*
X2540000Y48260000D01*
X24130000Y18415000D02*
X24130000Y17145000D01*
X24130000Y18415000D02*
X24130000Y26670000D01*
X25400000Y27940000D02*
X24130000Y26670000D01*
X25400000Y8255000D02*
X24765000Y8890000D01*
X24130000Y9525000D02*
X24130000Y17145000D01*
X25400000Y8255000D02*
X25400000Y6350000D01*
X24765000Y8890000D02*
X24130000Y9525000D01*
X27940000Y10795000D02*
X27940000Y5080000D01*
X27940000Y5080000D02*
X26670000Y3810000D01*
X27940000Y17145000D02*
X26670000Y18415000D01*
X27940000Y10795000D02*
X27940000Y17145000D01*
X26670000Y24130000D02*
X26670000Y22860000D01*
X26670000Y22860000D02*
X26670000Y18415000D01*
X25400000Y25400000D02*
X26670000Y24130000D01*
X26670000Y3810000D02*
X25400000Y3810000D01*
X4445000Y17145000D02*
X4445000Y15875000D01*
X4445000Y17145000D02*
X4445000Y37465000D01*
X10160000Y43180000D02*
X4445000Y37465000D01*
X4445000Y10795000D02*
X4445000Y15875000D01*
X4445000Y9525000D02*
X4445000Y10795000D01*
X4445000Y9525000D02*
X7620000Y6350000D01*
X22860000Y27940000D02*
X22860000Y26670000D01*
X25400000Y30480000D02*
X22860000Y27940000D01*
X22860000Y10160000D02*
X22860000Y6350000D01*
X22860000Y10160000D02*
X22860000Y26670000D01*
X21590000Y29210000D02*
X21590000Y27940000D01*
X21590000Y5080000D02*
X21590000Y8890000D01*
X25400000Y33020000D02*
X21590000Y29210000D01*
X21590000Y5080000D02*
X22860000Y3810000D01*
X21590000Y8890000D02*
X21590000Y27940000D01*
X20320000Y30480000D02*
X20320000Y29210000D01*
X20320000Y8890000D02*
X20320000Y29210000D01*
X20320000Y6350000D02*
X20320000Y7620000D01*
X20320000Y7620000D02*
X20320000Y8890000D01*
X20320000Y30480000D02*
X25400000Y35560000D01*
X19050000Y31750000D02*
X19050000Y30480000D01*
X19050000Y5080000D02*
X19050000Y30480000D01*
X25400000Y38100000D02*
X19050000Y31750000D01*
X19050000Y5080000D02*
X20320000Y3810000D01*
X17780000Y33020000D02*
X17780000Y31750000D01*
X25400000Y40640000D02*
X17780000Y33020000D01*
X17780000Y8890000D02*
X17780000Y6350000D01*
X17780000Y8890000D02*
X17780000Y31750000D01*
X16510000Y34290000D02*
X16510000Y33020000D01*
X16510000Y5080000D02*
X16510000Y8890000D01*
X25400000Y43180000D02*
X16510000Y34290000D01*
X16510000Y5080000D02*
X17780000Y3810000D01*
X16510000Y8890000D02*
X16510000Y33020000D01*
X15240000Y40640000D02*
X15240000Y39370000D01*
X10160000Y45720000D02*
X13970000Y41910000D01*
X15240000Y7620000D02*
X15240000Y6350000D01*
X15240000Y40640000D02*
X13970000Y41910000D01*
X15240000Y7620000D02*
X15240000Y39370000D01*
X13970000Y29210000D02*
X13970000Y27940000D01*
X13970000Y5080000D02*
X13970000Y7620000D01*
X10160000Y33020000D02*
X12700000Y30480000D01*
X13970000Y5080000D02*
X15240000Y3810000D01*
X13970000Y29210000D02*
X12700000Y30480000D01*
X13970000Y7620000D02*
X13970000Y27940000D01*
X12700000Y27940000D02*
X12700000Y26670000D01*
X10160000Y30480000D02*
X11430000Y29210000D01*
X12700000Y7620000D02*
X12700000Y6350000D01*
X12700000Y27940000D02*
X11430000Y29210000D01*
X12700000Y7620000D02*
X12700000Y26670000D01*
X8255000Y19050000D02*
X8255000Y17780000D01*
X11430000Y5080000D02*
X11430000Y8890000D01*
X11430000Y8890000D02*
X10160000Y10160000D01*
X8255000Y19050000D02*
X8255000Y33655000D01*
X10160000Y35560000D02*
X8255000Y33655000D01*
X11430000Y5080000D02*
X12700000Y3810000D01*
X8255000Y12065000D02*
X8255000Y17780000D01*
X10160000Y10160000D02*
X8255000Y12065000D01*
X6985000Y18415000D02*
X6985000Y17145000D01*
X10160000Y8255000D02*
X8890000Y9525000D01*
X6985000Y18415000D02*
X6985000Y34925000D01*
X10160000Y38100000D02*
X6985000Y34925000D01*
X10160000Y8255000D02*
X10160000Y6350000D01*
X6985000Y11430000D02*
X6985000Y17145000D01*
X8890000Y9525000D02*
X6985000Y11430000D01*
X5715000Y17780000D02*
X5715000Y16510000D01*
X8890000Y5080000D02*
X8890000Y7620000D01*
X8890000Y7620000D02*
X7620000Y8890000D01*
X5715000Y17780000D02*
X5715000Y36195000D01*
X10160000Y40640000D02*
X5715000Y36195000D01*
X8890000Y5080000D02*
X10160000Y3810000D01*
X5715000Y10795000D02*
X5715000Y16510000D01*
X7620000Y8890000D02*
X5715000Y10795000D01*
X30480000Y20320000D02*
X29210000Y20320000D01*
X26670000Y48260000D02*
X25400000Y48260000D01*
X27940000Y46990000D02*
X26670000Y48260000D01*
X27940000Y21590000D02*
X27940000Y46990000D01*
X29210000Y20320000D02*
X27940000Y21590000D01*
M02*
