M48
;DRILL file {KiCad 4.0.7} date 09/16/17 19:45:38
;FORMAT={-:-/ absolute / inch / decimal}
FMAT,2
INCH,TZ
T1C0.016
T2C0.031
T3C0.037
T4C0.040
T5C0.043
%
G90
G05
M72
T1
X1.4Y0.8
T2
X1.02Y0.63
X1.02Y0.5316
X1.3766Y0.28
X1.475Y0.28
T3
X0.1Y1.9
X0.1Y1.8
X0.1Y1.7
X0.1Y1.6
X0.1Y1.5
X1.655Y0.28
T4
X0.3Y0.25
X0.3Y0.15
X0.4Y0.25
X0.4Y0.15
X0.5Y0.25
X0.5Y0.15
X0.6Y0.25
X0.6Y0.15
X0.7Y0.25
X0.7Y0.15
X0.8Y0.25
X0.8Y0.15
X0.9Y0.25
X0.9Y0.15
X1.Y0.25
X1.Y0.15
T5
X0.4Y2.1
X0.4Y2.
X0.4Y1.9
X0.4Y1.8
X0.4Y1.7
X0.4Y1.6
X0.4Y1.5
X0.4Y1.4
X0.4Y1.3
X0.4Y1.2
X0.4Y1.1
X0.4Y1.
X0.4Y0.9
X0.4Y0.8
X1.Y2.1
X1.Y2.
X1.Y1.9
X1.Y1.8
X1.Y1.7
X1.Y1.6
X1.Y1.5
X1.Y1.4
X1.Y1.3
X1.Y1.2
X1.Y1.1
X1.Y1.
X1.Y0.9
X1.Y0.8
X1.2Y1.6
X1.2Y1.5
X1.2Y1.4
X1.2Y1.3
X1.2Y1.2
X1.2Y1.1
X1.2Y1.
X1.2Y0.9
X1.2Y0.8
X1.2Y0.7
X1.2Y0.6
X1.2Y0.5
X1.8Y1.6
X1.8Y1.5
X1.8Y1.4
X1.8Y1.3
X1.8Y1.2
X1.8Y1.1
X1.8Y1.
X1.8Y0.9
X1.8Y0.8
X1.8Y0.7
X1.8Y0.6
X1.8Y0.5
T0
M30
