%TF.GenerationSoftware,KiCad,Pcbnew,4.0.7*%
%TF.CreationDate,2017-09-16T19:45:42+02:00*%
%TF.ProjectId,ti99-usb-key,746939392D7573622D6B65792E6B6963,3.0*%
%TF.FileFunction,Soldermask,Bot*%
%FSLAX46Y46*%
G04 Gerber Fmt 4.6, Leading zero omitted, Abs format (unit mm)*
G04 Created by KiCad (PCBNEW 4.0.7) date 09/16/17 19:45:42*
%MOMM*%
%LPD*%
G01*
G04 APERTURE LIST*
%ADD10C,0.101600*%
%ADD11C,2.600000*%
%ADD12C,2.000000*%
%ADD13R,2.000000X2.000000*%
%ADD14R,2.127200X2.127200*%
%ADD15O,2.127200X2.127200*%
%ADD16R,2.400000X2.400000*%
%ADD17C,2.400000*%
G04 APERTURE END LIST*
D10*
D11*
X2603500Y2349500D03*
D12*
X25400000Y20320000D03*
X10160000Y20320000D03*
X25400000Y22860000D03*
X25400000Y25400000D03*
X25400000Y27940000D03*
X25400000Y30480000D03*
X25400000Y33020000D03*
X25400000Y35560000D03*
X25400000Y38100000D03*
X25400000Y40640000D03*
X25400000Y43180000D03*
X25400000Y45720000D03*
X25400000Y48260000D03*
X25400000Y50800000D03*
X25400000Y53340000D03*
X10160000Y22860000D03*
X10160000Y25400000D03*
X10160000Y27940000D03*
X10160000Y30480000D03*
X10160000Y33020000D03*
X10160000Y35560000D03*
X10160000Y38100000D03*
X10160000Y40640000D03*
X10160000Y43180000D03*
X10160000Y45720000D03*
X10160000Y48260000D03*
X10160000Y50800000D03*
D13*
X10160000Y53340000D03*
D14*
X25400000Y6350000D03*
D15*
X25400000Y3810000D03*
X22860000Y6350000D03*
X22860000Y3810000D03*
X20320000Y6350000D03*
X20320000Y3810000D03*
X17780000Y6350000D03*
X17780000Y3810000D03*
X15240000Y6350000D03*
X15240000Y3810000D03*
X12700000Y6350000D03*
X12700000Y3810000D03*
X10160000Y6350000D03*
X10160000Y3810000D03*
X7620000Y6350000D03*
X7620000Y3810000D03*
D11*
X45720000Y2540000D03*
X45720000Y52070000D03*
X2540000Y52070000D03*
D16*
X2540000Y48260000D03*
D17*
X2540000Y45720000D03*
X2540000Y43180000D03*
X2540000Y40640000D03*
X2540000Y38100000D03*
D13*
X30480000Y40640000D03*
D12*
X30480000Y38100000D03*
X30480000Y35560000D03*
X30480000Y33020000D03*
X30480000Y30480000D03*
X30480000Y27940000D03*
X30480000Y25400000D03*
X30480000Y22860000D03*
X30480000Y20320000D03*
X30480000Y17780000D03*
X30480000Y15240000D03*
X30480000Y12700000D03*
X45720000Y12700000D03*
X45720000Y15240000D03*
X45720000Y17780000D03*
X45720000Y20320000D03*
X45720000Y22860000D03*
X45720000Y25400000D03*
X45720000Y27940000D03*
X45720000Y30480000D03*
X45720000Y33020000D03*
X45720000Y35560000D03*
X45720000Y38100000D03*
X45720000Y40640000D03*
D13*
X37465000Y7112000D03*
D12*
X34965000Y7112000D03*
D13*
X25908000Y16002000D03*
D12*
X25908000Y13502000D03*
D16*
X42037000Y7112000D03*
M02*
